<svg width="24" height="24" viewBox="0 0 24 24" fill="none" xmlns="http://www.w3.org/2000/svg">
<path fill-rule="evenodd" clip-rule="evenodd" d="M4.02489 9.78279C4 10.407 4 11.1378 4 12V12.25C4 15.0784 4 16.4926 4.87868 17.3713C5.75736 18.25 7.17157 18.25 10 18.25H13.75C16.5784 18.25 17.9926 18.25 18.8713 17.3713C19.75 16.4926 19.75 15.0784 19.75 12.25V12C19.75 11.1378 19.75 10.407 19.7251 9.78279L12.8463 13.6044C12.2422 13.9399 11.5078 13.9399 10.9037 13.6044L4.02489 9.78279ZM4.35527 7.6901C4.3995 7.70697 4.44306 7.72719 4.48564 7.75084L11.875 11.856L19.2644 7.75084C19.3069 7.72719 19.3505 7.70697 19.3947 7.6901C19.2695 7.37291 19.1003 7.10762 18.8713 6.87868C17.9926 6 16.5784 6 13.75 6H10C7.17157 6 5.75736 6 4.87868 6.87868C4.64974 7.10762 4.48045 7.37291 4.35527 7.6901Z" fill="#222222"/>
</svg>
