<svg width="36" height="36" viewBox="0 0 36 36" fill="none" xmlns="http://www.w3.org/2000/svg">
<path d="M6.73197 27.449L7.69842 27.6906L6.73197 27.449C6.72917 27.4602 6.72624 27.4719 6.72323 27.4839C6.68641 27.6303 6.6354 27.8333 6.61783 28.0129C6.59761 28.2196 6.59093 28.6715 6.95971 29.0403L7.66682 28.3332L6.95971 29.0403C7.32849 29.4091 7.78045 29.4024 7.98714 29.3822C8.16676 29.3646 8.36968 29.3136 8.51617 29.2768C8.52817 29.2738 8.53979 29.2708 8.55099 29.268L13.2051 28.1045C13.223 28.1 13.2415 28.0955 13.2604 28.0908C13.4687 28.0394 13.7324 27.9743 13.9742 27.8374C14.2159 27.7005 14.4074 27.5079 14.5586 27.3558C14.5724 27.3419 14.5857 27.3285 14.5988 27.3154L26.2929 15.6213C26.3057 15.6085 26.3186 15.5957 26.3314 15.5829C26.6313 15.2831 26.9228 14.9917 27.1308 14.719C27.3653 14.4116 27.5858 14.0137 27.5858 13.5C27.5858 12.9863 27.3653 12.5884 27.1308 12.281C26.9228 12.0083 26.6313 11.717 26.3314 11.4172C26.3186 11.4043 26.3057 11.3915 26.2929 11.3787L26.2929 11.3787L26.2694 11.3551L26.2693 11.3551L24.6213 9.70711L24.5829 9.66864C24.2831 9.36872 23.9917 9.07724 23.719 8.86919C23.4116 8.63466 23.0137 8.41421 22.5 8.41421C21.9863 8.41421 21.5884 8.63466 21.281 8.86919C21.0083 9.07723 20.717 9.3687 20.4172 9.66862C20.4043 9.68144 20.3915 9.69427 20.3787 9.70711L8.68461 21.4012C8.67153 21.4143 8.65805 21.4277 8.64424 21.4414C8.49207 21.5926 8.29945 21.7841 8.16256 22.0259L9.0206 22.5117L8.16256 22.0259C8.02568 22.2676 7.96061 22.5313 7.90921 22.7396C7.90454 22.7585 7.89999 22.777 7.8955 22.7949L6.73197 27.449Z" stroke="white" stroke-width="2"/>
<path d="M18.75 11.25L23.25 8.25L27.75 12.75L24.75 17.25L18.75 11.25Z" fill="white"/>
</svg>
