<svg width="24" height="24" viewBox="0 0 24 24" fill="none" xmlns="http://www.w3.org/2000/svg">
<g clip-path="url(#clip0_54_17)">
<path d="M17.9637 5H6.03359C5.46211 5 5 5.45117 5 6.00898V17.9883C5 18.5461 5.46211 19 6.03359 19H17.9637C18.5352 19 19 18.5461 19 17.991V6.00898C19 5.45117 18.5352 5 17.9637 5ZM9.15352 16.9301H7.07539V10.2473H9.15352V16.9301ZM8.11445 9.33672C7.44727 9.33672 6.90859 8.79805 6.90859 8.13359C6.90859 7.46914 7.44727 6.93047 8.11445 6.93047C8.77891 6.93047 9.31758 7.46914 9.31758 8.13359C9.31758 8.79531 8.77891 9.33672 8.11445 9.33672ZM16.9301 16.9301H14.8547V13.6816C14.8547 12.9078 14.841 11.9098 13.7746 11.9098C12.6945 11.9098 12.5305 12.7547 12.5305 13.627V16.9301H10.4578V10.2473H12.4484V11.1605H12.4758C12.752 10.6355 13.4301 10.0805 14.4391 10.0805C16.5418 10.0805 16.9301 11.4641 16.9301 13.2633V16.9301V16.9301Z" fill="black"/>
</g>
<defs>
<clipPath id="clip0_54_17">
<rect width="14" height="14" fill="white" transform="translate(5 5)"/>
</clipPath>
</defs>
</svg>
