<svg width="24" height="24" viewBox="0 0 24 24" fill="none" xmlns="http://www.w3.org/2000/svg">
<path d="M6.67962 4.79406L6.76658 4.70711C7.1571 4.31658 7.79027 4.31658 8.18079 4.70711L10.3455 6.87184C10.736 7.26236 10.736 7.89553 10.3455 8.28605L8.81622 9.81536C8.5488 10.0828 8.4825 10.4913 8.65163 10.8296C9.62936 12.785 11.215 14.3706 13.1704 15.3484C13.5087 15.5175 13.9172 15.4512 14.1846 15.1838L15.7139 13.6545C16.1045 13.264 16.7376 13.264 17.1282 13.6545L19.2929 15.8192C19.6834 16.2097 19.6834 16.8429 19.2929 17.2334L19.2059 17.3204C17.0946 19.4317 13.752 19.6693 11.3633 17.8777L10.997 17.603C9.25346 16.2954 7.70464 14.7465 6.39699 13.003L6.12226 12.6367C4.33072 10.248 4.56827 6.90541 6.67962 4.79406Z" fill="#222222"/>
</svg>
